<svg width="170" height="170" viewBox="0 0 170 170" fill="none" xmlns="http://www.w3.org/2000/svg">
<g clip-path="url(#clip0)">
<path d="M92.3748 118.516C91.7185 118.516 91.0609 118.265 90.559 117.763L51.557 78.7614C50.5544 77.7589 50.5544 76.1324 51.557 75.1286C52.5608 74.126 54.1873 74.126 55.1898 75.1286L94.1919 114.131C95.1945 115.133 95.1945 116.761 94.1919 117.763C93.6899 118.265 93.0324 118.516 92.3748 118.516Z" fill="#8AC129"/>
<path d="M108.996 111.897C108.338 111.897 107.681 111.646 107.18 111.145L58.278 62.2429C57.2741 61.2403 57.2741 59.6126 58.278 58.61C59.2806 57.6061 60.9083 57.6061 61.9109 58.61L110.813 107.511C111.815 108.515 111.815 110.141 110.813 111.145C110.311 111.646 109.653 111.897 108.996 111.897Z" fill="#FF4C4C"/>
<path d="M115.616 95.2761C114.958 95.2761 114.301 95.0258 113.799 94.5239L74.7966 55.5218C73.794 54.5193 73.794 52.8915 74.7966 51.889C75.8004 50.8851 77.4269 50.8851 78.4308 51.889L117.431 90.8897C118.435 91.8936 118.435 93.52 117.431 94.5239C116.93 95.0258 116.272 95.2761 115.616 95.2761Z" fill="#8AC129"/>
<path d="M154.764 54.6489C154.107 54.6489 153.45 54.3986 152.948 53.8967L115.808 16.7572C114.805 15.7533 114.805 14.1269 115.808 13.1243C116.811 12.1204 118.438 12.1204 119.442 13.1243L156.581 50.2638C157.585 51.2677 157.585 52.8941 156.581 53.8967C156.079 54.3986 155.422 54.6489 154.764 54.6489Z" fill="#FF4C4C"/>
<path d="M51.7489 157.666C51.0913 157.666 50.4338 157.415 49.9318 156.913L12.791 119.773C11.7884 118.77 11.7884 117.143 12.791 116.14C13.7949 115.137 15.4213 115.137 16.4252 116.14L53.566 153.28C54.5686 154.283 54.5686 155.911 53.566 156.913C53.0641 157.415 52.4065 157.666 51.7489 157.666Z" fill="#FF4C4C"/>
<path d="M46.9228 107.847C31.1046 104.856 14.6405 104.38 1.32683 117.692C-0.88455 119.905 -0.885848 123.491 1.32683 125.704C3.53951 127.916 7.12571 127.915 9.33839 125.704C20.1333 114.909 33.8737 116.492 49.6945 119.972C48.7982 115.896 47.8125 111.835 46.9228 107.847Z" fill="#FFBF14"/>
<path d="M46.9228 107.847C44.5661 107.4 42.1952 107.011 39.8217 106.714C40.6803 110.638 41.6207 114.516 42.5247 118.535C44.8632 118.944 47.2548 119.435 49.6945 119.972C48.7931 115.874 47.8151 111.847 46.9228 107.847Z" fill="#E0A812"/>
<path d="M125.372 9.67036C127.584 7.45768 127.584 3.87149 125.372 1.65881C123.16 -0.55387 119.573 -0.552572 117.361 1.65881C85.7705 33.2498 131.7 80.4475 105.908 106.24C93.6834 118.465 77.6811 114.815 59.1561 110.512C60.1029 114.582 61.0536 118.682 61.8214 122.745C79.5384 126.695 98.769 129.401 113.919 114.251C145.589 82.5798 99.5887 35.4534 125.372 9.67036Z" fill="#FFBF14"/>
<path d="M61.8214 122.745C63.9407 123.217 66.0807 123.673 68.2325 124.08C67.5074 120.027 66.5969 116.014 65.6657 111.997C63.5334 111.529 61.3623 111.024 59.1548 110.512C60.1016 114.579 61.0484 118.655 61.8214 122.745Z" fill="#E0A812"/>
<path d="M110.18 59.4868C109.236 55.4324 108.275 51.2755 107.515 47.2548C89.7977 43.3054 70.5671 40.5986 55.4168 55.7488C23.8933 87.2737 69.6592 134.635 43.9643 160.33C41.7517 162.541 41.7517 166.129 43.9643 168.34C46.177 170.553 49.7632 170.553 51.9746 168.34C83.7653 136.55 37.5001 89.6874 63.4284 63.7604C75.6539 51.5349 91.655 55.1846 110.18 59.4868Z" fill="#45748C"/>
<path d="M107.515 47.2548C105.345 46.771 103.154 46.3067 100.949 45.8903C101.646 49.9331 102.538 53.9447 103.465 57.9576C105.664 58.4388 107.904 58.9576 110.18 59.4867C109.236 55.4323 108.275 51.2755 107.515 47.2548Z" fill="#3A6175"/>
<path d="M168.009 44.2963C165.797 42.0836 162.21 42.0836 159.998 44.2963C149.203 55.0912 135.462 53.5076 119.64 50.0278C120.546 54.1392 121.521 58.1495 122.413 62.1534C139.912 65.462 155.424 64.8913 168.009 52.3066C170.221 50.0952 170.221 46.5077 168.009 44.2963Z" fill="#45748C"/>
<path d="M125.919 51.3053C123.866 50.9305 121.771 50.496 119.64 50.0278C120.546 54.1393 121.521 58.1496 122.413 62.1534C124.478 62.5438 126.553 62.8914 128.632 63.1702C127.791 59.3324 126.811 55.2819 125.919 51.3053Z" fill="#3A6175"/>
</g>
<defs>
<clipPath id="clip0">
<rect width="170" height="170" fill="white"/>
</clipPath>
</defs>
</svg>
